# xmcd
#
# Track frame offsets: 
#        150
#        18248
#        38824
#        49589
#        65203
#
# Disc length: 1273 seconds
#
# Revision: 1
# Processed by: cddbd v1.5.2PL0 Copyright (c) Steve Scherf et al.
# Submitted via: ExactAudioCopy v0.99pb5
#
DISCID=3c04f705
DTITLE=The Clowns - Not Funny ... But Hot
DYEAR=2008
DGENRE=Rock and Roll
TTITLE0=Generation D
TTITLE1=Falling In Love For Just One Night
TTITLE2=Second Look
TTITLE3=Sweetest Thing
TTITLE4=Second Look Elektrikk Diskko Remix
EXTD=
EXTT0=
EXTT1=
EXTT2=
EXTT3=
EXTT4=
PLAYORDER=
